# xmcd CD database file
#
# Track frame offsets:
#	150
#	25455
#	44307
#	61162
#	81810
#	101445
#	121407
#	157697
#
# Disc length: 2338 seconds
#
# Revision: 0
# Processed by: cddbd v1.5.1PL0 Copyright (c) Steve Scherf et al.
# Submitted via: CDex 1.51
#
DISCID=57092008
DTITLE=Curtis Lundy - Just Be Yourself
DYEAR=1997
DGENRE=Jazz
TTITLE0=Jabbo's Revenge
TTITLE1=Silver's Serenade
TTITLE2=Funny (Not Much)
TTITLE3=Crossroads
TTITLE4=Never Gonna Let You Go
TTITLE5=Just Be Yourself
TTITLE6=Ballando
TTITLE7=Shaw "Nuff
EXTD=YEAR: 1997
EXTT0=
EXTT1=
EXTT2=
EXTT3=
EXTT4=
EXTT5=
EXTT6=
EXTT7=
PLAYORDER=
